<svg xmlns="http://www.w3.org/2000/svg" viewBox="0 0 24 24" width="24" height="24">
  <path d="M23,12c0,6.075-4.925,11-11,11S1,18.075,1,12S5.925,1,12,1S23,5.925,23,12z" fill="#09B83E"/>
  <path d="M8.5,6C5.462,6,3,7.948,3,10.385c0,1.36,0.737,2.598,1.884,3.438c0.16,0.117,0.256,0.312,0.256,0.521 c0,0.073-0.012,0.145-0.035,0.212c-0.11,0.392-0.35,1.209-0.35,1.209c-0.019,0.07-0.029,0.143-0.029,0.218 c0,0.453,0.367,0.82,0.82,0.82c0.172,0,0.332-0.053,0.463-0.144l1.616-0.931c0.107-0.062,0.231-0.097,0.363-0.097 c0.127,0,0.248,0.033,0.353,0.092C8.936,15.891,9.705,16,10.5,16c3.038,0,5.5-1.948,5.5-4.385c0-2.437-2.462-4.385-5.5-4.385 C10.5,7.23,8.5,6,8.5,6z M6.5,9.615c0.552,0,1,0.448,1,1c0,0.552-0.448,1-1,1s-1-0.448-1-1C5.5,10.063,5.948,9.615,6.5,9.615z M10.5,11.615c-0.552,0-1-0.448-1-1c0-0.552,0.448-1,1-1s1,0.448,1,1C11.5,11.167,11.052,11.615,10.5,11.615z" fill="white"/>
  <path d="M17.5,13c-2.209,0-4,1.343-4,3c0,1.656,1.791,3,4,3c0.445,0,0.872-0.061,1.274-0.174 c0.06-0.034,0.129-0.053,0.201-0.053c0.074,0,0.143,0.019,0.203,0.053l0.924,0.533c0.073,0.051,0.162,0.081,0.257,0.081 c0.25,0,0.453-0.203,0.453-0.453c0-0.042-0.006-0.082-0.016-0.121c0,0-0.133-0.454-0.195-0.67 c-0.013-0.038-0.019-0.077-0.019-0.117c0-0.116,0.053-0.224,0.142-0.289C21.425,17.334,21.5,16.687,21.5,16 C21.5,14.343,19.709,13,17.5,13z M16,15.5c-0.276,0-0.5-0.224-0.5-0.5c0-0.276,0.224-0.5,0.5-0.5s0.5,0.224,0.5,0.5 C16.5,15.276,16.276,15.5,16,15.5z M19,15.5c-0.276,0-0.5-0.224-0.5-0.5c0-0.276,0.224-0.5,0.5-0.5s0.5,0.224,0.5,0.5 C19.5,15.276,19.276,15.5,19,15.5z" fill="white"/>
</svg>
