<svg xmlns="http://www.w3.org/2000/svg" viewBox="0 0 24 24" width="24" height="24">
  <path d="M12,2C6.477,2,2,6.477,2,12c0,1.821,0.487,3.53,1.338,5.001l-1.314,3.933C1.928,21.268,2.108,21.75,2.441,22.083 c0.334,0.334,0.816,0.512,1.149,0.417l3.933-1.314C9.47,22.013,11.179,22.5,13,22.5c5.523,0,10-4.477,10-10S17.523,2,12,2z" fill="#25D366"/>
  <path d="M17.25,14.188c-0.308,0.871-1.813,1.688-2.5,1.75c-0.687,0.062-1.313,0.312-4.438-0.938 c-3.125-1.25-5.125-4.5-5.25-4.688c-0.125-0.188-1-1.625-1-3.125c0-1.5,0.75-2.188,1.063-2.5c0.313-0.313,0.688-0.375,0.938-0.375 c0.25,0,0.5,0,0.688,0.013c0.25,0.013,0.563-0.088,0.875,0.688c0.313,0.75,1,2.625,1.125,2.813c0.125,0.188,0.188,0.438,0.063,0.688 c-0.125,0.25-0.188,0.438-0.375,0.625c-0.188,0.188-0.375,0.438-0.563,0.563c-0.188,0.125-0.375,0.313-0.188,0.625 c0.188,0.313,0.813,1.313,1.75,2.125c1.188,1.063,2.188,1.375,2.5,1.5c0.313,0.125,0.5,0.125,0.688-0.063 c0.188-0.188,0.813-0.938,1.063-1.25c0.25-0.313,0.5-0.25,0.813-0.125c0.313,0.125,2,0.938,2.313,1.125 c0.313,0.188,0.563,0.25,0.625,0.438C17.563,12.688,17.563,13.313,17.25,14.188z" fill="white"/>
</svg>
